<?xml version="1.0" encoding="UTF-8" standalone="no"?>
<!-- Generator: IcoMoon.io -->

<svg
   xmlns:dc="http://purl.org/dc/elements/1.1/"
   xmlns:cc="http://creativecommons.org/ns#"
   xmlns:rdf="http://www.w3.org/1999/02/22-rdf-syntax-ns#"
   xmlns:svg="http://www.w3.org/2000/svg"
   xmlns="http://www.w3.org/2000/svg"
   xmlns:sodipodi="http://sodipodi.sourceforge.net/DTD/sodipodi-0.dtd"
   xmlns:inkscape="http://www.inkscape.org/namespaces/inkscape"
   version="1.1"
   id="Layer_1"
   x="0px"
   y="0px"
   width="48px"
   height="48px"
   viewBox="0 0 48 48"
   enable-background="new 0 0 16 16"
   xml:space="preserve"
   fill="#000000"
   inkscape:version="0.48.4 r9939"
   sodipodi:docname="update-theme-list.svg"><metadata
     id="metadata9"><rdf:RDF><cc:Work
         rdf:about=""><dc:format>image/svg+xml</dc:format><dc:type
           rdf:resource="http://purl.org/dc/dcmitype/StillImage" /></cc:Work></rdf:RDF></metadata><defs
     id="defs7" /><sodipodi:namedview
     pagecolor="#ffffff"
     bordercolor="#666666"
     borderopacity="1"
     objecttolerance="10"
     gridtolerance="10"
     guidetolerance="10"
     inkscape:pageopacity="0"
     inkscape:pageshadow="2"
     inkscape:window-width="1366"
     inkscape:window-height="712"
     id="namedview5"
     showgrid="false"
     inkscape:zoom="4.9166667"
     inkscape:cx="-40.474576"
     inkscape:cy="24"
     inkscape:window-x="0"
     inkscape:window-y="26"
     inkscape:window-maximized="1"
     inkscape:current-layer="Layer_1" /><path
     d="M 44.772,25.851 C 45.237,26.973 44.979,28.263 44.121,29.121 L 38.121,35.121 C 37.536,35.706 36.768,36.00 36.00,36.00 C 35.232,36.00 34.464,35.706 33.879,35.121 L 27.879,29.121 C 27.021,28.263 26.766,26.973 27.228,25.851 C 27.69,24.732 28.788,24.00 30.00,24.00 L 33.00,24.00 C 33.00,17.373 27.627,12.00 21.00,12.00 C 14.373,12.00 9.00,17.373 9.00,24.00 C 9.00,30.627 14.373,36.00 21.00,36.00 C 22.563,36.00 24.042,35.682 25.413,35.139 L 29.937,39.609 C 27.303,41.121 24.255,42.00 21.00,42.00 C 11.061,42.00 3.00,33.939 3.00,24.00 C 3.00,14.061 11.061,6.00 21.00,6.00 C 30.939,6.00 39.00,14.061 39.00,24.00 L 42.00,24.00 C 43.212,24.00 44.31,24.732 44.772,25.851 Z"
     id="path3" /><path
     inkscape:connector-curvature="0"
     d="m 44.771717,26.46117 c 0.465,1.122 0.207,2.412 -0.651,3.27 l -6.000001,6 c -0.585,0.585 -1.353,0.879 -2.121,0.879 -0.768,0 -1.536,-0.294 -2.121,-0.879 l -6,-6 c -0.858,-0.858 -1.113,-2.148 -0.651,-3.27 0.462,-1.119 1.56,-1.851 2.772,-1.851 l 3,0 c 0,-6.627 -5.373,-12 -12,-12 -6.627,0 -12.0000001,5.373 -12.0000001,12 0,6.627 5.3730001,12 12.0000001,12 1.563,0 3.042,-0.318 4.413,-0.861 l 4.524,4.47 c -2.634,1.512 -5.682,2.391 -8.937,2.391 -9.939,0 -18.0000001,-8.061 -18.0000001,-18 0,-9.939 8.0610001,-18.0000002 18.0000001,-18.0000002 9.939,0 18,8.0610002 18,18.0000002 l 3,0 c 1.212,0 2.310001,0.732 2.772001,1.851 z"
     id="path3-6"
     style="opacity:0.8;fill:#ffffff" /></svg>