<?xml version="1.0" encoding="UTF-8" standalone="no"?>
<!-- Generator: IcoMoon.io -->

<svg
   xmlns:dc="http://purl.org/dc/elements/1.1/"
   xmlns:cc="http://creativecommons.org/ns#"
   xmlns:rdf="http://www.w3.org/1999/02/22-rdf-syntax-ns#"
   xmlns:svg="http://www.w3.org/2000/svg"
   xmlns="http://www.w3.org/2000/svg"
   xmlns:sodipodi="http://sodipodi.sourceforge.net/DTD/sodipodi-0.dtd"
   xmlns:inkscape="http://www.inkscape.org/namespaces/inkscape"
   version="1.1"
   id="Layer_1"
   x="0px"
   y="0px"
   width="48px"
   height="48px"
   viewBox="0 0 48 48"
   enable-background="new 0 0 16 16"
   xml:space="preserve"
   fill="#000000"
   inkscape:version="0.48.4 r9939"
   sodipodi:docname="plank_theme.svg"><metadata
     id="metadata9"><rdf:RDF><cc:Work
         rdf:about=""><dc:format>image/svg+xml</dc:format><dc:type
           rdf:resource="http://purl.org/dc/dcmitype/StillImage" /></cc:Work></rdf:RDF></metadata><defs
     id="defs7" /><sodipodi:namedview
     pagecolor="#ffffff"
     bordercolor="#666666"
     borderopacity="1"
     objecttolerance="10"
     gridtolerance="10"
     guidetolerance="10"
     inkscape:pageopacity="0"
     inkscape:pageshadow="2"
     inkscape:window-width="1366"
     inkscape:window-height="712"
     id="namedview5"
     showgrid="false"
     inkscape:zoom="4.9166666"
     inkscape:cx="-4.0893172"
     inkscape:cy="43.025417"
     inkscape:window-x="0"
     inkscape:window-y="26"
     inkscape:window-maximized="1"
     inkscape:current-layer="Layer_1" /><path
     d="m 37.627119,2.8474576 c 4.38122,0 7.932203,3.5509831 7.932203,7.9322034 l 0,26.440679 c 0,4.38122 -3.550983,7.932203 -7.932203,7.932203 l -26.440678,0 c -4.3812206,0 -7.9322037,-3.550983 -7.9322037,-7.932203 l 0,-26.440679 c 0,-4.3812203 3.5509831,-7.9322034 7.9322037,-7.9322034 l 5.288136,0 0,5.2881356 -5.288136,0 c -1.4595257,0 -2.6440681,1.1845424 -2.6440681,2.6440678 l 0,26.440679 c 0,1.462169 1.1845424,2.644068 2.6440681,2.644068 l 26.440678,0 c 1.462169,0 2.644068,-1.181899 2.644068,-2.644068 l 0,-26.440679 c 0,-1.4595254 -1.181899,-2.6440678 -2.644068,-2.6440678 l -5.288136,0 0,-5.2881356 5.288136,0 z m -21.152542,26.4406794 15.864406,0 5.288136,7.932203 -26.440678,0 z m 6.062847,-6.062848 -5.288136,-5.288135 c -0.756203,-0.756204 -0.980949,-1.893153 -0.573762,-2.882034 0.407186,-0.986238 1.374915,-1.63139 2.443118,-1.63139 l 2.644068,0 0,-7.9322046 c 0,-1.4621695 1.184543,-2.6440678 2.644068,-2.6440678 1.462169,0 2.644068,1.1818983 2.644068,2.6440678 l 0,7.9322046 2.644068,0 c 1.068203,0 2.035932,0.645152 2.443118,1.63139 0.407187,0.988881 0.179797,2.12583 -0.573762,2.882034 l -5.288136,5.288135 c -0.515593,0.515593 -1.192475,0.774712 -1.869356,0.774712 -0.676881,0 -1.353763,-0.259119 -1.869356,-0.774712 z"
     id="path3"
     inkscape:connector-curvature="0"
     style="stroke:none" /><path
     d="m 37.627119,2.4067794 c 4.38122,0 7.932203,3.550983 7.932203,7.9322026 l 0,26.44068 c 0,4.38122 -3.550983,7.932203 -7.932203,7.932203 l -26.440677,0 c -4.3812216,0 -7.9322046,-3.550983 -7.9322046,-7.932203 l 0,-26.44068 c 0,-4.3812196 3.550983,-7.9322026 7.9322046,-7.9322026 l 5.288135,0 0,5.2881347 -5.288135,0 c -1.4595266,0 -2.6440686,1.1845433 -2.6440686,2.6440679 l 0,26.44068 c 0,1.462169 1.184542,2.644068 2.6440686,2.644068 l 26.440677,0 c 1.462169,0 2.644068,-1.181899 2.644068,-2.644068 l 0,-26.44068 c 0,-1.4595246 -1.181899,-2.6440679 -2.644068,-2.6440679 l -5.288136,0 0,-5.2881347 5.288136,0 z m -21.152542,26.4406796 15.864406,0 5.288136,7.932203 -26.440677,0 z m 6.062847,-6.062848 -5.288136,-5.288135 c -0.756203,-0.756204 -0.980949,-1.893153 -0.573762,-2.882034 0.407186,-0.986238 1.374915,-1.63139 2.443118,-1.63139 l 2.644068,0 0,-7.9322046 c 0,-1.46217 1.184543,-2.644068 2.644068,-2.644068 1.462169,0 2.644068,1.181898 2.644068,2.644068 l 0,7.9322046 2.644068,0 c 1.068203,0 2.035932,0.645152 2.443118,1.63139 0.407187,0.988881 0.179797,2.12583 -0.573762,2.882034 l -5.288136,5.288135 c -0.515593,0.515593 -1.192475,0.774712 -1.869356,0.774712 -0.676881,0 -1.353763,-0.259119 -1.869356,-0.774712 z"
     id="path3-2"
     inkscape:connector-curvature="0"
     style="opacity:0.8;fill:#ffffff;fill-opacity:1" /></svg>